<svg width="56" height="54" viewBox="0 0 56 54" fill="none" xmlns="http://www.w3.org/2000/svg">
<rect width="56" height="54" rx="16" fill="#FBD7DD"/>
<path fill-rule="evenodd" clip-rule="evenodd" d="M27.1454 14.9611C27.6744 14.5355 28.4388 14.5754 28.9207 15.0538C30.1617 16.2862 31.4329 17.1503 32.7203 17.9996C32.8027 18.054 32.8855 18.1085 32.9687 18.1632C34.1549 18.9439 35.4018 19.7646 36.4853 20.848C38.8282 23.1909 40 26.2643 40 29.3333C40 32.4023 38.8282 35.4757 36.4853 37.8186C31.799 42.5049 24.201 42.5049 19.5147 37.8186C17.1718 35.4757 16 32.4023 16 29.3333C16 26.2643 17.1718 23.1909 19.5147 20.848C19.8321 20.5306 20.288 20.3942 20.7276 20.4851C21.1638 20.5753 21.526 20.8774 21.6932 21.2898L21.6937 21.2912L21.6944 21.2928L21.6955 21.2957M21.6932 21.2898L21.6937 21.2912C21.6959 21.2963 21.7014 21.3089 21.7104 21.3284C21.7285 21.3673 21.7604 21.4333 21.8078 21.5205C21.9028 21.6955 22.0583 21.9531 22.2861 22.2498C22.4392 22.449 22.6239 22.6646 22.8442 22.8845C22.7126 23.7756 22.6667 24.6095 22.6667 25.3332H24.0001L24.5963 24.1407C23.8539 23.7695 23.2797 23.3189 22.8442 22.8845C23.2268 20.2957 24.3336 17.2233 27.1454 14.9611M27.976 17.8138C25.8392 20.0682 25.3334 23.0945 25.3334 25.3332C25.3334 25.7953 25.0941 26.2245 24.701 26.4674C24.3079 26.7104 23.8171 26.7325 23.4038 26.5258C21.9585 25.8032 20.9609 24.8559 20.3066 24.0459C19.2132 25.6325 18.6667 27.4816 18.6667 29.3333C18.6667 31.724 19.5776 34.1102 21.4003 35.9329C25.0452 39.5778 30.9548 39.5778 34.5997 35.9329C36.4224 34.1102 37.3333 31.724 37.3333 29.3333C37.3333 26.9426 36.4224 24.5563 34.5997 22.7336C33.7152 21.8492 32.6827 21.1687 31.4383 20.3485C31.3767 20.3078 31.3145 20.2669 31.2518 20.2255C30.2318 19.5526 29.1098 18.7997 27.976 17.8138ZM21.6966 21.2984C21.6966 21.2984 21.6966 21.2984 21.6966 21.2984V21.2984ZM26.7564 26.2394C26.9403 25.6956 27.4517 25.3305 28.0258 25.3333C29.3801 25.3398 30.7367 25.8608 31.7712 26.8953C32.8124 27.9365 33.3333 29.3038 33.3333 30.6666C33.3333 32.0295 32.8124 33.3967 31.7712 34.4378C29.6884 36.5206 26.3116 36.5206 24.2288 34.4378C23.1876 33.3967 22.6667 32.0295 22.6667 30.6666C22.6667 29.9303 23.2636 29.3333 24 29.3333L25.71 29.3332L26.7564 26.2394ZM28.9209 28.1629L27.9296 31.0937C27.7465 31.6353 27.2384 31.9999 26.6666 31.9999L25.6895 31.9999C25.8037 32.1972 25.9453 32.3831 26.1144 32.5522C27.1558 33.5936 28.8442 33.5936 29.8856 32.5522C30.4066 32.0312 30.6667 31.3511 30.6667 30.6666C30.6667 29.9821 30.4066 29.3019 29.8856 28.781C29.6027 28.498 29.2729 28.2921 28.9209 28.1629Z" fill="#E93553"/>
</svg>
