<svg width="56" height="54" viewBox="0 0 56 54" fill="none" xmlns="http://www.w3.org/2000/svg">
<rect width="56" height="54" rx="16" fill="#E1F1FD"/>
<path fill-rule="evenodd" clip-rule="evenodd" d="M25.4667 18.5333C23.451 18.5333 21.5179 19.334 20.0927 20.7593C18.6674 22.1846 17.8667 24.1177 17.8667 26.1333C17.8667 27.1314 18.0632 28.1197 18.4452 29.0417C18.8271 29.9638 19.3869 30.8016 20.0927 31.5073C20.7984 32.2131 21.6362 32.7729 22.5583 33.1548C23.4803 33.5368 24.4686 33.7333 25.4667 33.7333C26.4647 33.7333 27.453 33.5368 28.3751 33.1548C29.2971 32.7729 30.135 32.2131 30.8407 31.5073C31.5464 30.8016 32.1062 29.9638 32.4882 29.0417C32.8701 28.1197 33.0667 27.1314 33.0667 26.1333C33.0667 24.1177 32.266 22.1846 30.8407 20.7593C29.4154 19.334 27.4823 18.5333 25.4667 18.5333ZM18.3013 18.968C20.2017 17.0676 22.7791 16 25.4667 16C28.1542 16 30.7316 17.0676 32.632 18.968C34.5324 20.8684 35.6 23.4458 35.6 26.1333C35.6 27.4641 35.3379 28.7818 34.8286 30.0112C34.4818 30.8486 34.0249 31.6338 33.4715 32.3468L40.2957 39.171C40.7903 39.6657 40.7903 40.4677 40.2957 40.9623C39.801 41.457 38.999 41.457 38.5043 40.9623L31.6801 34.1382C30.9672 34.6916 30.1819 35.1485 29.3445 35.4953C28.1151 36.0046 26.7974 36.2667 25.4667 36.2667C24.1359 36.2667 22.8182 36.0046 21.5888 35.4953C20.3594 34.9861 19.2423 34.2396 18.3013 33.2987C17.3604 32.3577 16.6139 31.2406 16.1047 30.0112C15.5954 28.7818 15.3333 27.4641 15.3333 26.1333C15.3333 23.4458 16.4009 20.8684 18.3013 18.968Z" fill="#1292EE"/>
</svg>
