<svg width="56" height="54" viewBox="0 0 56 54" fill="none" xmlns="http://www.w3.org/2000/svg">
<rect width="56" height="54" rx="16" fill="#DFFBF2"/>
<path fill-rule="evenodd" clip-rule="evenodd" d="M14.6667 18.6666C14.6667 16.4575 16.4575 14.6666 18.6667 14.6666H24C26.1783 14.6666 27.9499 16.4079 27.9989 18.5744C29.5656 17.0771 32.0495 17.0986 33.5898 18.6389L37.3611 22.4101C38.9014 23.9504 38.9229 26.4344 37.4256 28.001C39.5921 28.05 41.3333 29.8216 41.3333 32V37.3333C41.3333 39.5424 39.5425 41.3333 37.3333 41.3333H21.3333C17.6514 41.3333 14.6667 38.3485 14.6667 34.6666V18.6666ZM26.7614 38.6666H37.3333C38.0697 38.6666 38.6667 38.0697 38.6667 37.3333V32C38.6667 31.2636 38.0697 30.6666 37.3333 30.6666H34.7614L26.7614 38.6666ZM33.2657 28.3911C33.2661 28.3907 33.2665 28.3903 33.267 28.3898L35.4755 26.1813C35.9962 25.6606 35.9962 24.8164 35.4755 24.2957L31.7042 20.5245C31.1835 20.0038 30.3393 20.0038 29.8186 20.5245L28 22.3431V33.6568L33.2657 28.3911ZM24.1636 37.4932C24.8864 36.7695 25.3333 35.7703 25.3333 34.6666V18.6666C25.3333 17.9302 24.7364 17.3333 24 17.3333H18.6667C17.9303 17.3333 17.3333 17.9302 17.3333 18.6666V34.6666C17.3333 36.8758 19.1242 38.6666 21.3333 38.6666C22.4379 38.6666 23.4379 38.2189 24.1618 37.4951C24.1624 37.4944 24.163 37.4938 24.1636 37.4932ZM20 34.6666C20 33.9302 20.5969 33.3333 21.3333 33.3333H21.3467C22.083 33.3333 22.68 33.9302 22.68 34.6666C22.68 35.403 22.083 36 21.3467 36H21.3333C20.5969 36 20 35.403 20 34.6666Z" fill="#16CA92"/>
</svg>
